<?xml version="1.0" encoding="utf-8"?>
<svg viewBox="33.619 31.565 284.093 37.931" width="284.093" height="37.931" xmlns="http://www.w3.org/2000/svg">
  <rect x="33.619" y="36.211" width="284.093" height="27.242" style="fill: rgb(255, 255, 255);"/>
  <path d="M 49.484 62.28 L 49.484 37.942 L 67.53 37.942 L 67.53 42.059 L 54.398 42.059 L 54.398 47.455 L 66.616 47.455 L 66.616 51.555 L 54.398 51.555 L 54.398 58.179 L 67.994 58.179 L 67.994 62.28 Z M 94.104 62.28 L 88.758 62.28 L 86.633 56.752 L 76.904 56.752 L 74.896 62.28 L 69.683 62.28 L 79.162 37.942 L 84.358 37.942 Z M 85.056 52.651 L 81.702 43.62 L 78.415 52.651 Z M 95.459 54.361 L 100.24 53.896 Q 100.672 56.303 101.992 57.432 Q 103.311 58.561 105.553 58.561 Q 107.927 58.561 109.13 57.557 Q 110.334 56.552 110.334 55.208 Q 110.334 54.344 109.828 53.738 Q 109.321 53.133 108.059 52.684 Q 107.196 52.385 104.125 51.622 Q 100.174 50.642 98.58 49.215 Q 96.339 47.206 96.339 44.317 Q 96.339 42.458 97.393 40.839 Q 98.447 39.22 100.431 38.374 Q 102.415 37.527 105.221 37.527 Q 109.803 37.527 112.119 39.536 Q 114.434 41.545 114.551 44.898 L 109.637 45.114 Q 109.321 43.238 108.284 42.416 Q 107.246 41.594 105.171 41.594 Q 103.029 41.594 101.817 42.474 Q 101.037 43.039 101.037 43.985 Q 101.037 44.848 101.767 45.463 Q 102.697 46.243 106.283 47.09 Q 109.869 47.936 111.587 48.841 Q 113.306 49.746 114.277 51.315 Q 115.248 52.884 115.248 55.191 Q 115.248 57.283 114.086 59.109 Q 112.924 60.935 110.799 61.823 Q 108.674 62.712 105.503 62.712 Q 100.888 62.712 98.414 60.578 Q 95.94 58.445 95.459 54.361 Z M 125.776 62.28 L 125.776 52.037 L 116.861 37.942 L 122.622 37.942 L 128.349 47.571 L 133.961 37.942 L 139.622 37.942 L 130.674 52.07 L 130.674 62.28 Z" style="fill: rgb(56, 182, 255); white-space: pre;"/>
  <path d="M 142.065 62.28 L 142.065 37.942 L 149.951 37.942 Q 154.433 37.942 155.794 38.307 Q 157.886 38.855 159.297 40.69 Q 160.709 42.524 160.709 45.429 Q 160.709 47.671 159.895 49.198 Q 159.082 50.725 157.828 51.597 Q 156.575 52.468 155.28 52.751 Q 153.52 53.099 150.183 53.099 L 146.979 53.099 L 146.979 62.28 Z M 146.979 42.059 L 146.979 48.966 L 149.668 48.966 Q 152.574 48.966 153.553 48.584 Q 154.533 48.202 155.089 47.388 Q 155.645 46.575 155.645 45.496 Q 155.645 44.168 154.865 43.304 Q 154.084 42.441 152.889 42.225 Q 152.009 42.059 149.353 42.059 Z M 164.721 37.942 L 173.702 37.942 Q 176.741 37.942 178.334 38.407 Q 180.476 39.038 182.003 40.648 Q 183.531 42.259 184.327 44.591 Q 185.124 46.924 185.124 50.343 Q 185.124 53.348 184.377 55.523 Q 183.464 58.179 181.771 59.823 Q 180.493 61.068 178.318 61.765 Q 176.691 62.28 173.968 62.28 L 164.721 62.28 Z M 169.635 42.059 L 169.635 58.179 L 173.304 58.179 Q 175.363 58.179 176.276 57.947 Q 177.471 57.648 178.26 56.934 Q 179.048 56.22 179.546 54.585 Q 180.044 52.95 180.044 50.128 Q 180.044 47.305 179.546 45.795 Q 179.048 44.284 178.152 43.437 Q 177.255 42.591 175.877 42.292 Q 174.848 42.059 171.843 42.059 Z M 189.319 62.28 L 189.319 37.942 L 206.003 37.942 L 206.003 42.059 L 194.233 42.059 L 194.233 47.82 L 204.393 47.82 L 204.393 51.937 L 194.233 51.937 L 194.233 62.28 Z" style="fill: rgb(0, 74, 173); white-space: pre;"/>
  <path d="M 210.076 62.28 L 210.076 37.942 L 220.419 37.942 Q 224.32 37.942 226.088 38.598 Q 227.856 39.254 228.919 40.93 Q 229.981 42.607 229.981 44.765 Q 229.981 47.505 228.371 49.289 Q 226.761 51.074 223.557 51.539 Q 225.15 52.468 226.188 53.581 Q 227.226 54.693 228.985 57.532 L 231.957 62.28 L 226.08 62.28 L 222.527 56.984 Q 220.635 54.145 219.937 53.406 Q 219.24 52.668 218.46 52.394 Q 217.68 52.12 215.986 52.12 L 214.99 52.12 L 214.99 62.28 Z M 214.99 48.235 L 218.626 48.235 Q 222.162 48.235 223.042 47.936 Q 223.922 47.637 224.42 46.907 Q 224.918 46.176 224.918 45.081 Q 224.918 43.852 224.262 43.097 Q 223.606 42.342 222.411 42.142 Q 221.813 42.059 218.825 42.059 L 214.99 42.059 Z M 234.607 62.28 L 234.607 37.942 L 252.653 37.942 L 252.653 42.059 L 239.521 42.059 L 239.521 47.455 L 251.74 47.455 L 251.74 51.555 L 239.521 51.555 L 239.521 58.179 L 253.118 58.179 L 253.118 62.28 Z M 256.035 54.361 L 260.816 53.896 Q 261.248 56.303 262.567 57.432 Q 263.887 58.561 266.129 58.561 Q 268.503 58.561 269.706 57.557 Q 270.91 56.552 270.91 55.208 Q 270.91 54.344 270.403 53.738 Q 269.897 53.133 268.635 52.684 Q 267.772 52.385 264.701 51.622 Q 260.75 50.642 259.156 49.215 Q 256.915 47.206 256.915 44.317 Q 256.915 42.458 257.969 40.839 Q 259.023 39.22 261.007 38.374 Q 262.991 37.527 265.796 37.527 Q 270.379 37.527 272.694 39.536 Q 275.01 41.545 275.127 44.898 L 270.212 45.114 Q 269.897 43.238 268.859 42.416 Q 267.822 41.594 265.747 41.594 Q 263.605 41.594 262.393 42.474 Q 261.613 43.039 261.613 43.985 Q 261.613 44.848 262.343 45.463 Q 263.273 46.243 266.859 47.09 Q 270.445 47.936 272.163 48.841 Q 273.881 49.746 274.853 51.315 Q 275.824 52.884 275.824 55.191 Q 275.824 57.283 274.662 59.109 Q 273.5 60.935 271.375 61.823 Q 269.25 62.712 266.079 62.712 Q 261.463 62.712 258.99 60.578 Q 256.516 58.445 256.035 54.361 Z M 285.439 62.28 L 285.439 42.059 L 278.217 42.059 L 278.217 37.942 L 297.558 37.942 L 297.558 42.059 L 290.353 42.059 L 290.353 62.28 Z" style="fill: rgb(0, 0, 0); white-space: pre;"/>
  <g transform="matrix(1, 0, 0, 1, -9, 0)" style="">
    <title>BOX</title>
    <rect x="309.46" y="38.266" width="5.642" height="24.138" style="stroke-opacity: 0; stroke-width: 0px; paint-order: stroke; stroke-miterlimit: 21; stroke: rgb(17, 49, 79); fill: rgb(56, 182, 255);"/>
    <rect x="315.104" y="38.263" width="5.642" height="24.138" style="stroke-opacity: 0; stroke-width: 0px; paint-order: stroke; stroke-miterlimit: 21; stroke: rgb(17, 49, 79); fill: rgb(0, 74, 173);"/>
    <rect x="320.74" y="38.263" width="5.642" height="24.138" style="stroke-opacity: 0; stroke-width: 0px; paint-order: stroke; stroke-miterlimit: 21; stroke: rgb(17, 49, 79); fill: rgb(0, 0, 1);"/>
  </g>
  <path d="M 33.979 61.903 L 33.979 55.506 L 39.755 49.264 L 33.979 43.091 L 33.979 36.739 L 42.255 46.573 L 42.255 52 L 33.979 61.903 Z" style="fill: rgb(51, 51, 51); text-transform: capitalize; white-space: pre;"/>
</svg>