<?xml version="1.0" encoding="utf-8"?>
<svg viewBox="33.979 31.443 283.403 38.058" width="283.403" height="38.058" xmlns="http://www.w3.org/2000/svg">
  <path d="M 49.484 62.28 L 49.484 37.942 L 67.53 37.942 L 67.53 42.059 L 54.398 42.059 L 54.398 47.455 L 66.616 47.455 L 66.616 51.555 L 54.398 51.555 L 54.398 58.179 L 67.994 58.179 L 67.994 62.28 Z M 94.105 62.28 L 88.759 62.28 L 86.634 56.752 L 76.906 56.752 L 74.897 62.28 L 69.684 62.28 L 79.163 37.942 L 84.36 37.942 Z M 85.057 52.651 L 81.703 43.62 L 78.416 52.651 Z M 95.461 54.361 L 100.243 53.896 Q 100.674 56.303 101.994 57.432 Q 103.314 58.561 105.555 58.561 Q 107.929 58.561 109.133 57.557 Q 110.336 56.552 110.336 55.208 Q 110.336 54.344 109.83 53.738 Q 109.324 53.133 108.062 52.684 Q 107.199 52.385 104.127 51.622 Q 100.176 50.642 98.582 49.215 Q 96.341 47.206 96.341 44.317 Q 96.341 42.458 97.395 40.839 Q 98.45 39.22 100.434 38.374 Q 102.417 37.527 105.223 37.527 Q 109.805 37.527 112.121 39.536 Q 114.437 41.545 114.553 44.898 L 109.639 45.114 Q 109.324 43.238 108.286 42.416 Q 107.248 41.594 105.173 41.594 Q 103.032 41.594 101.82 42.474 Q 101.039 43.039 101.039 43.985 Q 101.039 44.848 101.77 45.463 Q 102.7 46.243 106.286 47.09 Q 109.872 47.936 111.59 48.841 Q 113.308 49.746 114.279 51.315 Q 115.25 52.884 115.25 55.191 Q 115.25 57.283 114.088 59.109 Q 112.926 60.935 110.801 61.823 Q 108.676 62.712 105.505 62.712 Q 100.89 62.712 98.416 60.578 Q 95.943 58.445 95.461 54.361 Z M 125.78 62.28 L 125.78 52.037 L 116.865 37.942 L 122.625 37.942 L 128.353 47.571 L 133.964 37.942 L 139.625 37.942 L 130.677 52.07 L 130.677 62.28 Z" style="fill: rgb(56, 182, 255); white-space: pre;"/>
  <path d="M 142.07 62.28 L 142.07 37.942 L 149.956 37.942 Q 154.438 37.942 155.799 38.307 Q 157.891 38.855 159.302 40.69 Q 160.713 42.524 160.713 45.429 Q 160.713 47.671 159.9 49.198 Q 159.086 50.725 157.833 51.597 Q 156.58 52.468 155.285 52.751 Q 153.525 53.099 150.188 53.099 L 146.984 53.099 L 146.984 62.28 Z M 146.984 42.059 L 146.984 48.966 L 149.673 48.966 Q 152.579 48.966 153.558 48.584 Q 154.538 48.202 155.094 47.388 Q 155.65 46.575 155.65 45.496 Q 155.65 44.168 154.87 43.304 Q 154.089 42.441 152.894 42.225 Q 152.014 42.059 149.358 42.059 Z M 164.727 37.942 L 173.708 37.942 Q 176.747 37.942 178.34 38.407 Q 180.482 39.038 182.009 40.648 Q 183.537 42.259 184.333 44.591 Q 185.13 46.924 185.13 50.343 Q 185.13 53.348 184.383 55.523 Q 183.47 58.179 181.777 59.823 Q 180.499 61.068 178.324 61.765 Q 176.697 62.28 173.974 62.28 L 164.727 62.28 Z M 169.641 42.059 L 169.641 58.179 L 173.31 58.179 Q 175.369 58.179 176.282 57.947 Q 177.477 57.648 178.266 56.934 Q 179.054 56.22 179.552 54.585 Q 180.05 52.95 180.05 50.128 Q 180.05 47.305 179.552 45.795 Q 179.054 44.284 178.158 43.437 Q 177.261 42.591 175.883 42.292 Q 174.854 42.059 171.849 42.059 Z M 189.326 62.28 L 189.326 37.942 L 206.01 37.942 L 206.01 42.059 L 194.24 42.059 L 194.24 47.82 L 204.4 47.82 L 204.4 51.937 L 194.24 51.937 L 194.24 62.28 Z" style="fill: rgb(0, 74, 173); white-space: pre;"/>
  <path d="M 210.085 62.28 L 210.085 37.942 L 220.427 37.942 Q 224.329 37.942 226.097 38.598 Q 227.865 39.254 228.927 40.93 Q 229.99 42.607 229.99 44.765 Q 229.99 47.505 228.379 49.289 Q 226.769 51.074 223.565 51.539 Q 225.159 52.468 226.196 53.581 Q 227.234 54.693 228.994 57.532 L 231.965 62.28 L 226.088 62.28 L 222.536 56.984 Q 220.643 54.145 219.946 53.406 Q 219.249 52.668 218.468 52.394 Q 217.688 52.12 215.995 52.12 L 214.999 52.12 L 214.999 62.28 Z M 214.999 48.235 L 218.634 48.235 Q 222.17 48.235 223.05 47.936 Q 223.93 47.637 224.428 46.907 Q 224.926 46.176 224.926 45.081 Q 224.926 43.852 224.271 43.097 Q 223.615 42.342 222.419 42.142 Q 221.822 42.059 218.834 42.059 L 214.999 42.059 Z M 234.617 62.28 L 234.617 37.942 L 252.663 37.942 L 252.663 42.059 L 239.531 42.059 L 239.531 47.455 L 251.75 47.455 L 251.75 51.555 L 239.531 51.555 L 239.531 58.179 L 253.128 58.179 L 253.128 62.28 Z M 256.046 54.361 L 260.827 53.896 Q 261.259 56.303 262.578 57.432 Q 263.898 58.561 266.139 58.561 Q 268.513 58.561 269.717 57.557 Q 270.921 56.552 270.921 55.208 Q 270.921 54.344 270.414 53.738 Q 269.908 53.133 268.646 52.684 Q 267.783 52.385 264.712 51.622 Q 260.76 50.642 259.167 49.215 Q 256.926 47.206 256.926 44.317 Q 256.926 42.458 257.98 40.839 Q 259.034 39.22 261.018 38.374 Q 263.002 37.527 265.807 37.527 Q 270.389 37.527 272.705 39.536 Q 275.021 41.545 275.137 44.898 L 270.223 45.114 Q 269.908 43.238 268.87 42.416 Q 267.833 41.594 265.758 41.594 Q 263.616 41.594 262.404 42.474 Q 261.624 43.039 261.624 43.985 Q 261.624 44.848 262.354 45.463 Q 263.284 46.243 266.87 47.09 Q 270.456 47.936 272.174 48.841 Q 273.892 49.746 274.864 51.315 Q 275.835 52.884 275.835 55.191 Q 275.835 57.283 274.673 59.109 Q 273.51 60.935 271.385 61.823 Q 269.26 62.712 266.09 62.712 Q 261.474 62.712 259.001 60.578 Q 256.527 58.445 256.046 54.361 Z M 285.451 62.28 L 285.451 42.059 L 278.229 42.059 L 278.229 37.942 L 297.57 37.942 L 297.57 42.059 L 290.365 42.059 L 290.365 62.28 Z" style="fill: rgb(0, 0, 0); white-space: pre;"/>
  <g transform="matrix(1, 0, 0, 1, -9, 0)">
    <title>BOX</title>
    <rect x="309.46" y="38.266" width="5.642" height="24.138" style="stroke-opacity: 0; stroke-width: 0px; paint-order: stroke; stroke-miterlimit: 21; stroke: rgb(17, 49, 79); fill: rgb(56, 182, 255);"/>
    <rect x="315.104" y="38.263" width="5.642" height="24.138" style="stroke-opacity: 0; stroke-width: 0px; paint-order: stroke; stroke-miterlimit: 21; stroke: rgb(17, 49, 79); fill: rgb(0, 74, 173);"/>
    <rect x="320.74" y="38.263" width="5.642" height="24.138" style="stroke-opacity: 0; stroke-width: 0px; paint-order: stroke; stroke-miterlimit: 21; stroke: rgb(17, 49, 79); fill: rgb(0, 0, 1);"/>
  </g>
  <path d="M 33.979 61.903 L 33.979 55.506 L 39.755 49.264 L 33.979 43.091 L 33.979 36.739 L 42.255 46.573 L 42.255 52 L 33.979 61.903 Z" style="fill: rgb(51, 51, 51); text-transform: capitalize; white-space: pre;"/>
</svg>